<?xml version="1.0" standalone="no"?>
<!DOCTYPE svg PUBLIC "-//W3C//DTD SVG 20010904//EN"
 "http://www.w3.org/TR/2001/REC-SVG-20010904/DTD/svg10.dtd">
<svg version="1.0" xmlns="http://www.w3.org/2000/svg"
 width="1124.000000pt" height="180.000000pt" viewBox="0 0 1124.000000 180.000000"
 preserveAspectRatio="xMidYMid meet">
<metadata>
Created by potrace 1.16, written by Peter Selinger 2001-2019
</metadata>
<g transform="translate(0.000000,180.000000) scale(0.100000,-0.100000)"
fill="#000000" stroke="none">
<path d="M2845 1348 c-2 -7 -7 -146 -10 -308 -2 -162 -6 -322 -7 -355 l-3 -60
38 -3 c26 -2 45 2 58 14 17 15 19 32 19 161 0 149 6 179 46 214 25 22 72 31
109 21 52 -14 64 -50 70 -213 4 -79 8 -154 11 -166 5 -28 44 -39 74 -23 21 11
22 17 16 84 -3 39 -8 100 -11 136 -14 181 -20 205 -64 244 -16 14 -36 19 -87
18 -36 0 -71 -5 -77 -11 -15 -15 -60 -14 -75 1 -7 7 -12 42 -12 89 0 112 -24
169 -72 169 -10 0 -21 -6 -23 -12z"/>
<path d="M5825 1349 c-4 -5 -3 -38 1 -72 5 -34 9 -191 9 -349 0 -157 3 -289 7
-293 4 -4 26 -8 50 -10 24 -1 75 -5 113 -9 98 -11 149 4 201 59 48 52 64 99
64 188 0 110 -41 192 -117 235 -29 15 -104 16 -156 0 -35 -11 -41 -10 -53 7
-8 11 -14 45 -14 84 -1 84 -14 151 -31 162 -19 12 -67 11 -74 -2z m298 -309
c42 -37 54 -80 51 -182 -3 -83 -20 -131 -59 -168 -20 -19 -36 -23 -86 -23 -52
0 -65 3 -80 22 -24 30 -32 91 -27 211 3 89 6 102 28 126 51 54 121 60 173 14z"/>
<path d="M7301 1343 c-20 -17 -21 -21 -10 -68 13 -59 -1 -129 -29 -143 -9 -5
-45 -12 -80 -15 -73 -8 -105 -22 -149 -69 -51 -54 -73 -117 -73 -214 0 -87 14
-129 63 -182 39 -42 130 -54 211 -26 44 15 88 15 128 -1 10 -4 24 1 36 13 17
17 19 26 11 59 -5 21 -9 160 -9 308 -1 149 -4 288 -8 310 -6 35 -11 40 -38 43
-18 2 -39 -4 -53 -15z m-57 -284 c40 -19 56 -66 56 -169 0 -148 -25 -204 -99
-221 -89 -20 -151 44 -159 164 -7 98 36 204 92 227 30 13 81 12 110 -1z"/>
<path d="M845 1341 c-66 -9 -120 -36 -151 -76 -21 -27 -24 -43 -24 -108 0 -45
4 -77 10 -77 6 0 10 -6 10 -14 0 -22 67 -70 176 -126 54 -28 111 -64 127 -81
56 -60 22 -155 -64 -180 -65 -20 -140 4 -234 75 -20 15 -45 -1 -45 -30 0 -71
88 -117 225 -118 83 -1 134 15 181 57 49 42 64 77 64 144 0 50 -5 64 -34 104
-28 38 -55 57 -165 114 -98 50 -136 75 -146 96 -43 82 11 159 112 159 42 0 96
-21 160 -61 53 -32 57 63 5 99 -31 22 -131 33 -207 23z"/>
<path d="M4941 1306 c-8 -9 -9 -48 -5 -129 7 -121 -10 -408 -27 -464 -14 -44
-4 -73 25 -73 44 0 49 21 62 238 7 114 15 215 19 225 10 24 39 21 53 -5 17
-33 58 -130 99 -233 61 -151 81 -175 120 -143 14 11 93 167 93 184 0 3 22 53
50 111 39 81 54 104 67 101 24 -4 31 -56 33 -248 2 -85 5 -168 9 -185 8 -39
48 -59 86 -45 24 9 26 14 21 43 -20 99 -26 184 -24 387 1 124 -1 231 -6 238
-4 6 -23 12 -42 12 -56 0 -98 -53 -193 -247 -47 -95 -90 -174 -96 -177 -21 -8
-32 8 -110 163 -100 201 -118 228 -161 246 -45 19 -58 19 -73 1z"/>
<path d="M1324 1235 c-7 -19 -14 -41 -14 -50 0 -8 -16 -32 -35 -53 l-34 -39
26 -38 c24 -36 27 -51 34 -175 8 -156 19 -207 52 -239 30 -28 84 -37 130 -22
50 17 55 39 12 57 -19 7 -39 14 -45 14 -6 0 -19 15 -30 33 -17 27 -20 49 -19
142 0 134 14 169 77 200 23 11 42 25 42 31 0 7 -21 22 -47 35 -40 20 -50 31
-63 69 -20 60 -28 70 -51 70 -13 0 -25 -12 -35 -35z"/>
<path d="M2425 1113 c-70 -21 -121 -27 -129 -14 -10 15 -38 14 -60 -2 -17 -12
-17 -20 -6 -106 11 -75 11 -131 -1 -304 -20 -316 -22 -291 28 -295 32 -2 47 2
63 18 20 20 21 29 15 90 -9 87 6 105 92 115 83 10 136 32 175 73 49 52 68 111
68 210 0 122 -37 184 -129 217 -51 18 -51 18 -116 -2z m93 -68 c84 -70 77
-287 -11 -357 -22 -18 -108 -25 -142 -12 -30 12 -45 71 -45 183 0 124 15 166
70 193 50 25 93 23 128 -7z"/>
<path d="M6505 1118 c-53 -19 -86 -48 -83 -72 2 -17 9 -21 37 -18 19 1 39 6
45 10 24 18 96 34 120 28 57 -14 90 -78 63 -120 -11 -16 -32 -27 -69 -36 -134
-29 -152 -36 -184 -65 -19 -17 -34 -37 -34 -43 0 -7 -5 -21 -12 -31 -9 -15 -9
-28 0 -59 28 -93 94 -124 198 -95 61 17 82 18 170 7 68 -8 81 7 54 64 -16 32
-20 62 -20 139 0 179 -22 250 -86 283 -36 18 -159 23 -199 8z m176 -258 c15
-8 19 -22 19 -61 0 -95 -52 -146 -139 -136 -56 6 -81 34 -81 87 0 52 38 96 93
108 58 13 85 14 108 2z"/>
<path d="M1820 1114 c-76 -29 -125 -69 -150 -122 -7 -15 -16 -35 -21 -44 -13
-25 -11 -149 3 -189 32 -93 92 -142 189 -153 95 -12 209 29 209 75 0 23 -8 23
-81 3 -75 -21 -134 -13 -181 26 -43 36 -55 73 -34 105 12 19 28 25 73 30 159
16 220 35 234 73 18 47 -31 172 -67 172 -7 0 -14 5 -16 10 -4 12 -134 23 -158
14z m103 -55 c36 -19 57 -52 57 -92 0 -34 -4 -40 -36 -53 -24 -10 -61 -14
-117 -12 l-82 3 -3 30 c-7 83 107 162 181 124z"/>
<path d="M3580 1114 c-111 -42 -162 -109 -176 -227 -8 -64 10 -147 40 -193 46
-71 148 -105 247 -85 69 14 119 44 119 71 0 24 -7 25 -81 4 -102 -29 -188 1
-219 75 -22 54 24 90 120 92 46 1 139 21 168 37 19 11 22 21 22 70 0 61 -23
106 -71 140 -22 15 -141 27 -169 16z m103 -55 c36 -19 57 -52 57 -92 0 -34 -4
-40 -36 -53 -24 -10 -61 -14 -117 -12 -77 3 -82 4 -85 26 -9 60 64 142 126
142 18 0 43 -5 55 -11z"/>
<path d="M8035 1114 c-69 -18 -123 -62 -158 -129 -17 -32 -21 -59 -21 -130 0
-77 3 -96 24 -134 52 -92 152 -135 261 -112 85 18 145 59 121 83 -7 7 -30 6
-81 -7 -90 -22 -140 -14 -186 30 -27 25 -35 40 -35 68 0 53 -2 52 233 84 65 8
91 40 83 102 -7 52 -36 102 -73 126 -26 18 -128 29 -168 19z m105 -59 c37 -19
63 -76 50 -109 -12 -32 -58 -46 -150 -46 -89 0 -97 7 -80 69 22 81 109 123
180 86z"/>
<path d="M4235 1098 c-16 -5 -44 -16 -62 -24 -39 -17 -61 -17 -93 1 -14 8 -39
14 -57 15 l-32 0 -4 -187 c-3 -104 -8 -205 -12 -225 -6 -34 -5 -39 18 -49 20
-9 33 -9 57 1 l30 12 0 104 c0 108 12 188 36 240 14 31 65 64 99 64 23 0 69
-28 84 -52 16 -25 41 -196 41 -280 0 -58 3 -69 21 -78 21 -12 75 -5 84 10 3 5
-1 36 -10 69 -8 32 -15 92 -16 132 0 95 -19 181 -44 209 -21 23 -75 51 -97 49
-7 0 -26 -5 -43 -11z"/>
<path d="M7583 1094 c-3 -9 -1 -31 5 -48 16 -44 16 -319 0 -363 -17 -48 -3
-67 54 -71 33 -2 51 2 69 17 l24 19 -20 53 c-16 43 -21 89 -25 229 l-5 175
-48 3 c-37 2 -49 -1 -54 -14z"/>
<path d="M8546 1090 c-89 -45 -115 -95 -116 -221 0 -95 13 -137 56 -189 37
-44 64 -53 169 -60 l90 -5 -1 -47 c-1 -88 -74 -136 -189 -124 -104 11 -128
-16 -49 -54 39 -20 57 -22 120 -17 89 7 127 26 169 86 30 43 30 43 30 189 1
81 5 202 10 270 10 146 5 156 -80 167 -30 3 -57 11 -60 16 -11 16 -108 9 -149
-11z m169 -65 c24 -25 25 -31 25 -141 0 -130 -12 -169 -59 -197 -64 -37 -138
-13 -166 55 -26 62 -24 172 4 227 41 80 143 109 196 56z"/>
<path d="M9823 1094 c-3 -9 -1 -31 5 -48 7 -18 12 -85 12 -150 0 -206 37 -276
147 -276 30 0 78 7 107 15 44 13 58 13 97 2 31 -9 53 -11 73 -4 26 9 27 12 21
46 -4 20 -9 118 -12 219 -4 177 -5 183 -28 198 -18 12 -27 12 -49 3 l-26 -12
0 -136 c0 -159 -10 -203 -55 -248 -27 -27 -40 -33 -76 -33 -86 1 -99 31 -106
240 -7 192 -10 200 -63 200 -28 0 -43 -5 -47 -16z"/>
<path d="M9017 1093 c-10 -10 -8 -79 2 -105 9 -21 19 -54 75 -240 30 -97 79
-135 118 -90 14 16 63 114 103 205 9 20 22 37 28 37 7 0 32 -42 56 -92 59
-128 86 -168 114 -168 48 0 66 37 133 265 14 50 31 99 36 111 16 35 6 79 -19
82 -25 4 -42 -25 -61 -103 -74 -294 -105 -306 -164 -60 -5 22 -13 58 -17 80
-13 62 -20 73 -52 80 -43 10 -79 -16 -79 -58 -1 -45 -34 -194 -53 -239 -28
-67 -60 -41 -91 74 -45 163 -59 204 -73 216 -18 13 -46 16 -56 5z"/>
</g>
</svg>
